<mxfile host="app.diagrams.net" agent="Mozilla/5.0 (X11; Linux x86_64) AppleWebKit/537.36 (KHTML, like Gecko) Chrome/131.0.0.0 Safari/537.36" version="26.1.1">
  <diagram name="Страница — 1" id="DQ8imi5eh9gdpLCtXENQ">
    <mxGraphModel dx="943" dy="543" grid="1" gridSize="10" guides="1" tooltips="1" connect="1" arrows="1" fold="1" page="0" pageScale="1" pageWidth="827" pageHeight="1169" math="0" shadow="0">
      <root>
        <mxCell id="0" />
        <mxCell id="1" parent="0" />
        <mxCell id="uXNf4TVWvwjsxXdPjGZj-1" value="&lt;b&gt;&lt;font style=&quot;font-size: 14px;&quot;&gt;ios base&lt;/font&gt;&lt;/b&gt;" style="rounded=0;whiteSpace=wrap;html=1;fontFamily=Helvetica;" parent="1" vertex="1">
          <mxGeometry x="380" y="200" width="80" height="40" as="geometry" />
        </mxCell>
        <mxCell id="uXNf4TVWvwjsxXdPjGZj-2" value="&lt;b&gt;&lt;font style=&quot;font-size: 14px;&quot;&gt;basic ios&lt;/font&gt;&lt;/b&gt;&lt;div&gt;&lt;span style=&quot;font-size: 10px;&quot;&gt;&lt;font style=&quot;&quot;&gt;(ios / wios)&lt;/font&gt;&lt;/span&gt;&lt;/div&gt;" style="rounded=0;whiteSpace=wrap;html=1;fontFamily=Helvetica;" parent="1" vertex="1">
          <mxGeometry x="380" y="280" width="80" height="40" as="geometry" />
        </mxCell>
        <mxCell id="uXNf4TVWvwjsxXdPjGZj-3" value="&lt;b&gt;&lt;font style=&quot;font-size: 14px;&quot;&gt;basic istream&lt;/font&gt;&lt;/b&gt;&lt;div&gt;&lt;span style=&quot;font-size: 10px; background-color: initial;&quot;&gt;(istream / wistream)&lt;/span&gt;&lt;/div&gt;" style="rounded=0;whiteSpace=wrap;html=1;fontFamily=Helvetica;" parent="1" vertex="1">
          <mxGeometry x="200" y="440" width="120" height="40" as="geometry" />
        </mxCell>
        <mxCell id="uXNf4TVWvwjsxXdPjGZj-4" value="&lt;b&gt;&lt;font style=&quot;font-size: 14px;&quot;&gt;basic ostream&lt;/font&gt;&lt;/b&gt;&lt;div&gt;&lt;span style=&quot;background-color: initial; font-size: 10px;&quot;&gt;&lt;font&gt;(ostream / wo&lt;/font&gt;&lt;/span&gt;&lt;span style=&quot;background-color: initial; font-size: 10px;&quot;&gt;stream)&lt;/span&gt;&lt;/div&gt;" style="rounded=0;whiteSpace=wrap;html=1;fontFamily=Helvetica;" parent="1" vertex="1">
          <mxGeometry x="520" y="440" width="120" height="40" as="geometry" />
        </mxCell>
        <mxCell id="uXNf4TVWvwjsxXdPjGZj-5" value="&lt;b&gt;&lt;font style=&quot;font-size: 14px;&quot;&gt;basic iostream&lt;/font&gt;&lt;/b&gt;&lt;div&gt;&lt;span style=&quot;background-color: initial; font-size: 10px;&quot;&gt;&lt;font&gt;(iostream / wio&lt;/font&gt;&lt;/span&gt;&lt;span style=&quot;background-color: initial; font-size: 10px;&quot;&gt;stream)&lt;/span&gt;&lt;/div&gt;" style="rounded=0;whiteSpace=wrap;html=1;fontFamily=Helvetica;" parent="1" vertex="1">
          <mxGeometry x="360" y="520" width="120" height="40" as="geometry" />
        </mxCell>
        <mxCell id="uXNf4TVWvwjsxXdPjGZj-6" value="" style="endArrow=none;html=1;rounded=0;exitX=0.5;exitY=0;exitDx=0;exitDy=0;entryX=0;entryY=0.5;entryDx=0;entryDy=0;endFill=0;fontFamily=Helvetica;startFill=0;startArrow=blockThin;" parent="1" source="uXNf4TVWvwjsxXdPjGZj-3" target="uXNf4TVWvwjsxXdPjGZj-2" edge="1">
          <mxGeometry width="50" height="50" relative="1" as="geometry">
            <mxPoint x="250" y="310" as="sourcePoint" />
            <mxPoint x="300" y="260" as="targetPoint" />
            <Array as="points">
              <mxPoint x="260" y="300" />
            </Array>
          </mxGeometry>
        </mxCell>
        <mxCell id="uXNf4TVWvwjsxXdPjGZj-7" value="" style="endArrow=none;html=1;rounded=0;entryX=1;entryY=0.5;entryDx=0;entryDy=0;endFill=0;exitX=0.5;exitY=0;exitDx=0;exitDy=0;fontFamily=Helvetica;startFill=0;startArrow=blockThin;" parent="1" source="uXNf4TVWvwjsxXdPjGZj-4" target="uXNf4TVWvwjsxXdPjGZj-2" edge="1">
          <mxGeometry width="50" height="50" relative="1" as="geometry">
            <mxPoint x="570" y="330" as="sourcePoint" />
            <mxPoint x="390" y="310" as="targetPoint" />
            <Array as="points">
              <mxPoint x="580" y="300" />
            </Array>
          </mxGeometry>
        </mxCell>
        <mxCell id="uXNf4TVWvwjsxXdPjGZj-9" value="" style="endArrow=none;html=1;rounded=0;exitX=0.5;exitY=0;exitDx=0;exitDy=0;entryX=0.5;entryY=1;entryDx=0;entryDy=0;endFill=0;fontFamily=Helvetica;startFill=0;startArrow=blockThin;" parent="1" source="uXNf4TVWvwjsxXdPjGZj-2" target="uXNf4TVWvwjsxXdPjGZj-1" edge="1">
          <mxGeometry width="50" height="50" relative="1" as="geometry">
            <mxPoint x="490" y="270" as="sourcePoint" />
            <mxPoint x="540" y="220" as="targetPoint" />
          </mxGeometry>
        </mxCell>
        <mxCell id="uXNf4TVWvwjsxXdPjGZj-11" value="&lt;font&gt;virtual&lt;/font&gt;" style="text;html=1;align=center;verticalAlign=middle;whiteSpace=wrap;rounded=0;fontFamily=Helvetica;" parent="1" vertex="1">
          <mxGeometry x="220" y="259" width="80" height="40" as="geometry" />
        </mxCell>
        <mxCell id="uXNf4TVWvwjsxXdPjGZj-14" value="&lt;b&gt;&lt;font style=&quot;font-size: 14px;&quot;&gt;basic oxstream&lt;/font&gt;&lt;/b&gt;&lt;div&gt;&lt;span style=&quot;background-color: initial; font-size: 10px;&quot;&gt;&lt;font&gt;(oxstream / wox&lt;/font&gt;&lt;/span&gt;&lt;span style=&quot;background-color: initial; font-size: 10px;&quot;&gt;stream)&lt;/span&gt;&lt;/div&gt;" style="rounded=0;whiteSpace=wrap;html=1;fontFamily=Helvetica;" parent="1" vertex="1">
          <mxGeometry x="520" y="600" width="120" height="40" as="geometry" />
        </mxCell>
        <mxCell id="uXNf4TVWvwjsxXdPjGZj-15" value="&lt;b&gt;&lt;font style=&quot;font-size: 14px;&quot;&gt;basic ixstream&lt;/font&gt;&lt;/b&gt;&lt;div&gt;&lt;span style=&quot;font-size: 10px; background-color: initial;&quot;&gt;(ixstream / wixstream)&lt;/span&gt;&lt;/div&gt;" style="rounded=0;whiteSpace=wrap;html=1;fontFamily=Helvetica;" parent="1" vertex="1">
          <mxGeometry x="200" y="600" width="120" height="40" as="geometry" />
        </mxCell>
        <mxCell id="uXNf4TVWvwjsxXdPjGZj-16" value="&lt;b&gt;&lt;font style=&quot;font-size: 14px;&quot;&gt;basic xstream&lt;/font&gt;&lt;/b&gt;&lt;div&gt;&lt;span style=&quot;background-color: initial; font-size: 10px;&quot;&gt;&lt;font&gt;(xstream / wx&lt;/font&gt;&lt;/span&gt;&lt;span style=&quot;background-color: initial; font-size: 10px;&quot;&gt;stream)&lt;/span&gt;&lt;/div&gt;" style="rounded=0;whiteSpace=wrap;html=1;fontFamily=Helvetica;" parent="1" vertex="1">
          <mxGeometry x="360" y="600" width="120" height="40" as="geometry" />
        </mxCell>
        <mxCell id="uXNf4TVWvwjsxXdPjGZj-17" value="" style="endArrow=none;html=1;rounded=0;exitX=0.5;exitY=0;exitDx=0;exitDy=0;entryX=0.5;entryY=1;entryDx=0;entryDy=0;endFill=0;fontFamily=Helvetica;startFill=0;startArrow=blockThin;" parent="1" edge="1" source="uXNf4TVWvwjsxXdPjGZj-15">
          <mxGeometry width="50" height="50" relative="1" as="geometry">
            <mxPoint x="259.71000000000004" y="520" as="sourcePoint" />
            <mxPoint x="259.71000000000004" y="480" as="targetPoint" />
          </mxGeometry>
        </mxCell>
        <mxCell id="uXNf4TVWvwjsxXdPjGZj-18" value="" style="endArrow=none;html=1;rounded=0;exitX=0.5;exitY=0;exitDx=0;exitDy=0;entryX=0.5;entryY=1;entryDx=0;entryDy=0;endFill=0;fontFamily=Helvetica;startFill=0;startArrow=blockThin;" parent="1" edge="1">
          <mxGeometry width="50" height="50" relative="1" as="geometry">
            <mxPoint x="419.71" y="600" as="sourcePoint" />
            <mxPoint x="419.71" y="560" as="targetPoint" />
          </mxGeometry>
        </mxCell>
        <mxCell id="uXNf4TVWvwjsxXdPjGZj-19" value="" style="endArrow=none;html=1;rounded=0;exitX=0.5;exitY=0;exitDx=0;exitDy=0;entryX=0.5;entryY=1;entryDx=0;entryDy=0;endFill=0;fontFamily=Helvetica;startFill=0;startArrow=blockThin;" parent="1" edge="1" source="uXNf4TVWvwjsxXdPjGZj-14">
          <mxGeometry width="50" height="50" relative="1" as="geometry">
            <mxPoint x="579.71" y="520" as="sourcePoint" />
            <mxPoint x="579.71" y="480" as="targetPoint" />
          </mxGeometry>
        </mxCell>
        <mxCell id="5mokgpeEaxBPW0fvR2Iq-12" value="&lt;b&gt;&lt;font style=&quot;font-size: 14px;&quot;&gt;basic streambuf&lt;/font&gt;&lt;/b&gt;&lt;div&gt;&lt;font style=&quot;font-size: 10px;&quot;&gt;(streambuf / wstreambuf)&lt;/font&gt;&lt;/div&gt;" style="rounded=0;whiteSpace=wrap;html=1;fontFamily=Helvetica;" parent="1" vertex="1">
          <mxGeometry x="360" y="360" width="120" height="40" as="geometry" />
        </mxCell>
        <mxCell id="tt8CwCLD8RiFsPgzTU63-1" value="&lt;font&gt;virtual&lt;/font&gt;" style="text;html=1;align=center;verticalAlign=middle;whiteSpace=wrap;rounded=0;fontFamily=Helvetica;" parent="1" vertex="1">
          <mxGeometry x="540" y="259" width="80" height="40" as="geometry" />
        </mxCell>
        <mxCell id="HcYr_ZRlxIs8V9ediCQU-1" value="" style="endArrow=oval;html=1;rounded=0;exitX=1;exitY=0.5;exitDx=0;exitDy=0;endFill=0;" edge="1" parent="1" source="uXNf4TVWvwjsxXdPjGZj-3">
          <mxGeometry width="50" height="50" relative="1" as="geometry">
            <mxPoint x="390" y="500" as="sourcePoint" />
            <mxPoint x="420" y="460" as="targetPoint" />
          </mxGeometry>
        </mxCell>
        <mxCell id="HcYr_ZRlxIs8V9ediCQU-2" value="" style="endArrow=none;html=1;rounded=0;entryX=0;entryY=0.5;entryDx=0;entryDy=0;startArrow=oval;startFill=0;" edge="1" parent="1" target="uXNf4TVWvwjsxXdPjGZj-4">
          <mxGeometry width="50" height="50" relative="1" as="geometry">
            <mxPoint x="420" y="460" as="sourcePoint" />
            <mxPoint x="480" y="450" as="targetPoint" />
          </mxGeometry>
        </mxCell>
        <mxCell id="HcYr_ZRlxIs8V9ediCQU-3" value="" style="endArrow=oval;html=1;rounded=0;endFill=0;exitX=0.5;exitY=0;exitDx=0;exitDy=0;startArrow=blockThin;startFill=0;" edge="1" parent="1" source="uXNf4TVWvwjsxXdPjGZj-5">
          <mxGeometry width="50" height="50" relative="1" as="geometry">
            <mxPoint x="330" y="520" as="sourcePoint" />
            <mxPoint x="420" y="460" as="targetPoint" />
          </mxGeometry>
        </mxCell>
      </root>
    </mxGraphModel>
  </diagram>
</mxfile>
